<svg version="1.1" xmlns="http://www.w3.org/2000/svg" xmlns:xlink="http://www.w3.org/1999/xlink" width="101.39656" height="99.18788" viewBox="0,0,101.39656,99.18788"><defs><linearGradient x1="221.66" y1="206.1421" x2="232.0686" y2="211.1415" gradientUnits="userSpaceOnUse" id="color-1"><stop offset="0" stop-color="#ffffff"/><stop offset="1" stop-color="#ffffff"/></linearGradient><linearGradient x1="255.6114" y1="135.9371" x2="266.02" y2="140.9365" gradientUnits="userSpaceOnUse" id="color-2"><stop offset="0" stop-color="#ffffff"/><stop offset="1" stop-color="#ffffff"/></linearGradient><linearGradient x1="202.8989" y1="152.7681" x2="213.303" y2="157.7551" gradientUnits="userSpaceOnUse" id="color-3"><stop offset="0" stop-color="#ffffff"/><stop offset="1" stop-color="#ffffff"/></linearGradient><linearGradient x1="274.7673" y1="188.6099" x2="285.1759" y2="193.6093" gradientUnits="userSpaceOnUse" id="color-4"><stop offset="0" stop-color="#ffffff"/><stop offset="1" stop-color="#ffffff"/></linearGradient><linearGradient x1="220.1105" y1="137.0884" x2="231.0589" y2="133.3909" gradientUnits="userSpaceOnUse" id="color-5"><stop offset="0" stop-color="#ffffff"/><stop offset="1" stop-color="#ffffff"/></linearGradient><linearGradient x1="247.4461" y1="211.9203" x2="258.3946" y2="208.2228" gradientUnits="userSpaceOnUse" id="color-6"><stop offset="0" stop-color="#ffffff"/><stop offset="1" stop-color="#ffffff"/></linearGradient><linearGradient x1="287.4215" y1="169.2225" x2="283.4532" y2="158.3888" gradientUnits="userSpaceOnUse" id="color-7"><stop offset="0" stop-color="#ffffff"/><stop offset="1" stop-color="#ffffff"/></linearGradient><linearGradient x1="210.5468" y1="194.4668" x2="206.5782" y2="183.6332" gradientUnits="userSpaceOnUse" id="color-8"><stop offset="0" stop-color="#ffffff"/><stop offset="1" stop-color="#ffffff"/></linearGradient></defs><g transform="translate(-190.59723,-128.81936)"><g data-paper-data="{&quot;isPaintingLayer&quot;:true}" fill-rule="nonzero" stroke="#8000ff" stroke-miterlimit="10" stroke-dasharray="" stroke-dashoffset="0" style="mix-blend-mode: normal"><path d="M253.2379,154.1342c7.1582,3.4311 12.2902,9.3669 14.7974,16.1852c2.5089,6.8178 2.393,14.518 -0.9429,21.4775c-3.336,6.9596 -9.2661,11.8729 -16.1523,14.1872c-6.8856,2.316 -14.7273,2.0331 -21.8855,-1.3981c-7.1582,-3.4312 -12.2903,-9.367 -14.7975,-16.1853c-2.5089,-6.8177 -2.393,-14.5179 0.943,-21.4775c3.3359,-6.9595 9.2661,-11.8728 16.1523,-14.1871c6.8856,-2.3161 14.7272,-2.0331 21.8855,1.3981z" fill="none" stroke-width="19.02325" stroke-linecap="butt" stroke-linejoin="miter"/><path d="M221.66,206.1421l10.4165,4.9828l-5.2664,10.9647l-10.4166,-4.9828z" fill="url(#color-1)" stroke-width="9.1438" stroke-linecap="round" stroke-linejoin="round"/><path d="M255.6114,135.9371l10.4166,4.9828l-5.2665,10.9647l-10.4166,-4.9828z" fill="url(#color-2)" stroke-width="9.1438" stroke-linecap="round" stroke-linejoin="round"/><path d="M202.8989,152.7681l10.4041,4.987l-5.2536,10.9603l-10.4041,-4.987z" fill="url(#color-3)" stroke-width="9.13654" stroke-linecap="round" stroke-linejoin="round"/><path d="M274.7673,188.6099l10.4165,4.9828l-5.2664,10.9647l-10.4166,-4.9828z" fill="url(#color-4)" stroke-width="9.1438" stroke-linecap="round" stroke-linejoin="round"/><path d="M220.1105,137.0884l10.9484,-3.6975l3.889,11.5155l-10.9485,3.6975z" fill="url(#color-5)" stroke-width="9.14308" stroke-linecap="round" stroke-linejoin="round"/><path d="M247.4461,211.9203l10.9485,-3.6975l3.889,11.5154l-10.9485,3.6975z" fill="url(#color-6)" stroke-width="9.14308" stroke-linecap="round" stroke-linejoin="round"/><path d="M275.9904,173.4095l-3.9691,-10.8333l11.4311,-4.1871l3.9691,10.8334z" fill="url(#color-7)" stroke-width="9.14458" stroke-linecap="round" stroke-linejoin="round"/><path d="M199.1341,198.6476l-3.9686,-10.8335l11.4127,-4.1809l3.9686,10.8336z" fill="url(#color-8)" stroke-width="9.13654" stroke-linecap="round" stroke-linejoin="round"/></g></g></svg>