<svg version="1.1" xmlns="http://www.w3.org/2000/svg" xmlns:xlink="http://www.w3.org/1999/xlink" width="14.49999" height="11.2173" viewBox="0,0,14.49999,11.2173"><g transform="translate(-233.04431,-174.75)"><g data-paper-data="{&quot;isPaintingLayer&quot;:true}" fill="#9f66ff" fill-rule="nonzero" stroke="none" stroke-width="1" stroke-linecap="butt" stroke-linejoin="miter" stroke-miterlimit="10" stroke-dasharray="" stroke-dashoffset="0" style="mix-blend-mode: normal"><path d="M237.47416,174.75c1.49891,0 2.71454,1.21646 2.71454,2.72107c0,0.69953 -0.2569,1.33556 -0.69423,1.81415c0.58503,0.34093 1.09143,0.82068 1.48563,1.39718c0.5238,0.7719 0.8533,1.7259 0.9033,2.7594c0.0139,0.1054 0.0139,0.2078 0.0139,0.2924v0.0065c0,0.8155 -0.6482,1.3721 -1.4582,1.7129c-0.8231,0.3462 -1.90277,0.5137 -2.96829,0.5137c-1.06552,0 -2.14516,-0.1675 -2.96828,-0.5137c-0.81004,-0.3408 -1.45822,-0.8974 -1.45822,-1.7129c0,-1.9276 0.96318,-3.6154 2.40479,-4.45633c-0.43398,-0.47915 -0.696,-1.11843 -0.696,-1.8133c0,-1.50505 1.21602,-2.72107 2.72106,-2.72107z"/><path d="M246.4338,177.56872c0,0.4374 -0.1519,0.83776 -0.4044,1.15435c0.9114,0.57622 1.5149,1.66993 1.5149,2.91393c0,0.4014 -0.2249,0.7131 -0.5357,0.9365c-0.3074,0.2208 -0.7194,0.3728 -1.1627,0.4679c-0.8871,0.1903 -1.9782,0.1691 -2.8185,-0.0661c-0.1038,-0.029 -0.1773,-0.1214 -0.1823,-0.2292c-0.0439,-0.9469 -0.3448,-1.8157 -0.8181,-2.5131c-0.051,-0.0752 -0.0572,-0.1721 -0.0162,-0.25318c0.265,-0.52421 0.6546,-0.95943 1.1265,-1.25705c-0.2523,-0.31655 -0.4041,-0.71679 -0.4041,-1.15405c0,-1.02529 0.8283,-1.85356 1.8536,-1.85356c1.0194,0 1.847,0.82894 1.847,1.85356z"/></g></g></svg>