<svg version="1.1" xmlns="http://www.w3.org/2000/svg" xmlns:xlink="http://www.w3.org/1999/xlink" width="138.913" height="120.301" viewBox="0,0,138.913,120.301"><g transform="translate(-170.5435,-119.8495)"><g data-paper-data="{&quot;isPaintingLayer&quot;:true}" fill="#9900ff" fill-rule="nonzero" stroke="none" stroke-width="1" stroke-linecap="butt" stroke-linejoin="miter" stroke-miterlimit="10" stroke-dasharray="" stroke-dashoffset="0" style="mix-blend-mode: normal"><g><path d="M240.9275,129.7095c1.244,0 2.251,1.008 2.251,2.251c0,0 0,43.632 0,47.738c4.088,0 45.485,0 45.485,0c1.244,0 2.253,1.007 2.253,2.251c0,1.245 -1.009,2.252 -2.253,2.252h-47.736c-1.245,0 -2.252,-1.007 -2.252,-2.252v-49.989c0,-1.243 1.007,-2.251 2.252,-2.251z"/><path d="M240.5275,219.2015c1.381,0 2.5,1.119 2.5,2.5v9.5c0,1.381 -1.119,2.5 -2.5,2.5c-1.381,0 -2.5,-1.119 -2.5,-2.5v-9.5c0,-1.381 1.119,-2.5 2.5,-2.5z"/><path d="M194.3615,178.8675c1.381,0 2.5,1.119 2.5,2.5c0,1.381 -1.119,2.5 -2.5,2.5h-10c-1.381,0 -2.5,-1.119 -2.5,-2.5c0,-1.381 1.119,-2.5 2.5,-2.5z"/><path d="M274.7275,119.8495l34.729,60.151l-34.729,60.15h-69.456l-34.728,-60.15l34.728,-60.151h68.013zM208.1585,124.8495c-1.351,2.34 -30.491,52.811 -31.842,55.151c1.351,2.34 30.491,52.81 31.842,55.15c2.701,0 60.98,0 63.683,0c1.35,-2.34 30.491,-52.81 31.841,-55.15c-1.35,-2.34 -30.491,-52.811 -31.841,-55.151c-2.703,0 -60.981,0 -63.683,0z"/></g></g></g></svg>